<svg xmlns="http://www.w3.org/2000/svg" width="20" height="21" viewBox="0 0 20 21">
  <path fill="#FFF" d="M12.3759624,10.0930516 L19.5061033,2.9629108 C20.1624413,2.30657277 20.1624413,1.24244131 19.5061033,0.586197183 C18.8497653,-0.0701408451 17.7857277,-0.0701408451 17.1293897,0.586197183 L9.99915493,7.71643192 L2.86892019,0.586103286 C2.21258216,-0.0702347418 1.1485446,-0.0702347418 0.492206573,0.586103286 C-0.164037559,1.24244131 -0.164037559,2.30657277 0.492206573,2.9628169 L7.62244131,10.0929577 L0.492206573,17.2231925 C-0.164037559,17.8795305 -0.164037559,18.943662 0.492206573,19.5999061 C1.1485446,20.2562441 2.21258216,20.2562441 2.86892019,19.5999061 L9.99915493,12.4696714 L17.1293897,19.5999061 C17.7856338,20.2562441 18.8497653,20.2562441 19.5061033,19.5999061 C20.1624413,18.9435681 20.1624413,17.8795305 19.5061033,17.2231925 L12.3759624,10.0930516 Z"/>
</svg>
